<svg id="Layer_2" data-name="Layer 2" xmlns="http://www.w3.org/2000/svg" viewBox="0 0 312 381"><defs><style>.cls-1,.cls-6,.cls-7,.cls-8{fill:none;strokeLinecap:round;stroke-miterlimit:10;}.cls-1{stroke:#499bd5;strokeWidth:6.37px;}.cls-2{fill:#0b5cab;}.cls-3{fill:#499bd5;}.cls-4{fill:#fff;}.cls-5{fill:#69c2ed;}.cls-6,.cls-8{stroke:#fff;strokeWidth:2.73px;}.cls-7{stroke:#0b5cab;strokeWidth:4.55px;}.cls-8{stroke-dasharray:0.91 8.19;}</style></defs><title>price increase bark bg</title><path className="cls-1" d="M52,150s28.72-7.74,92-51.5"/><path className="cls-2" d="M193.36,260.14s16.18,14.78,34.15,14.78c7.19,0,15-2.8,15-11.39,0-16-64.91-17.38-64.91-60.32,0-22.37,16-38.35,38.15-42.54V141.9H237.5v18.18c24.37,2.8,36.55,15.58,36.55,15.58l-14.78,28.56s-14.38-12.58-31.56-12.58c-7.19,0-15.18,3.2-15.18,11.18,0,17,64.91,15.78,64.91,59.92,0,21.17-14.38,39.55-39.95,43.54v18.18H215.73V306.28C189.37,302.49,175,286.71,175,286.71Z"/><path className="cls-3" d="M120.55,281.13S136,295.21,153.1,295.21c6.85,0,14.27-2.66,14.27-10.85,0-15.22-61.85-16.56-61.85-57.47,0-21.31,15.22-36.54,36.35-40.54V168.47h20.74v17.32c23.22,2.66,34.83,14.84,34.83,14.84l-14.08,27.21s-13.7-12-30.07-12c-6.85,0-14.46,3-14.46,10.66,0,16.18,61.85,15,61.85,57.09,0,20.17-13.7,37.68-38.06,41.49v17.32H141.87V325.09C116.75,321.47,103,306.44,103,306.44Z"/><path className="cls-4" d="M51.12,300.33s14.59,13.33,30.8,13.33c6.48,0,13.51-2.52,13.51-10.27,0-14.41-58.53-15.67-58.53-54.39,0-20.17,14.41-34.58,34.4-38.36V193.71H90.92V210.1c22,2.52,33,14,33,14L110.55,249.9s-13-11.35-28.46-11.35c-6.48,0-13.69,2.88-13.69,10.09,0,15.31,58.53,14.23,58.53,54,0,19.09-13,35.66-36,39.26v16.39H71.29V341.93c-23.77-3.42-36.74-17.65-36.74-17.65Z"/><path className="cls-5" d="M23.82,170.92c84.82-24.77,161.63-78.42,208-153.66l12.08,10.27C195.49,106.08,115.77,164.71,26.39,187.65a6.52,6.52,0,0,1-5.84-1.36h0A8.93,8.93,0,0,1,23.82,170.92Z"/><path className="cls-5" d="M237,11.41a383,383,0,0,1-66.55,33c-10.31,3.93-4.48,20.1,5.89,16.15A405,405,0,0,0,230,35.46q-2.19,12.56-4,25.19c-1.7,12.31-1.81,26.74-6.6,38.51-1.79,4.4-1.53,9.53,3.27,12.1,17.8,9.52,18.83-37.23,20-45.76q3.1-22.84,7.66-45.44C251.92,12.4,243.2,7.55,237,11.41Z"/><path className="cls-6" d="M35.25,160.9s80.31-24.53,145.33-89.11"/><path className="cls-7" d="M221.11,121.5s16.5,3,23.5-12.5,3.5-36.22,10-60.91"/><path className="cls-1" d="M250.68,109c5.71-12.65,4.43-28.78,7.3-47.71"/><path className="cls-7" d="M91.22,114.53c20.48-10.82,43.11-24.85,59.4-40.74"/><path className="cls-7" d="M41,137.5S56.28,131.77,76.5,122"/><path className="cls-6" d="M268.09,102.56C267,115.5,255.71,132,237.86,131.5"/><path className="cls-6" d="M268.09,33.36s.4,20.38.47,39.43c0,7,0,13.82-.08,19.38"/><path className="cls-8" d="M61,114.53s38.83-18.62,70.66-42.07"/><path className="cls-8" d="M258.57,37.82S261.1,17,260.41,13"/></svg>