<?xml version="1.0" encoding="iso-8859-1"?>
<!-- Generator: Adobe Illustrator 19.0.0, SVG Export Plug-In . SVG Version: 6.00 Build 0)  -->
<svg xmlns="http://www.w3.org/2000/svg" xmlns:xlink="http://www.w3.org/1999/xlink" version="1.1" id="Layer_1" x="0px" y="0px" viewBox="0 0 512 512" style="enable-background:new 0 0 512 512;" xml:space="preserve">
<path style="fill:#707487;" d="M409.921,367.165H33.67c-14.168,0-25.653-11.485-25.653-25.653V102.079  c0-14.168,11.485-25.653,25.653-25.653h376.251c14.168,0,25.653,11.485,25.653,25.653v239.432  C435.574,355.68,424.089,367.165,409.921,367.165z"/>
<polygon style="fill:#5B5D6E;" points="264.551,435.574 179.04,435.574 196.142,358.614 247.449,358.614 "/>
<g>
	<rect x="42.221" y="110.63" style="fill:#FFDC64;" width="359.148" height="222.33"/>
	<path style="fill:#FFDC64;" d="M427.023,332.96L427.023,332.96c-23.613,0-42.756-19.143-42.756-42.756v-8.551   c0-23.613,19.143-42.756,42.756-42.756l0,0c23.613,0,42.756,19.143,42.756,42.756v8.551   C469.779,313.818,450.636,332.96,427.023,332.96z"/>
	<path style="fill:#FFDC64;" d="M486.442,369.869l-22.246-7.415c-3.832-1.277-7.935-1.005-11.745,0.341   c-7.963,2.814-16.512,4.37-25.428,4.37s-17.465-1.556-25.428-4.37c-3.808-1.346-7.912-1.618-11.745-0.341l-22.247,7.415   c-10.475,3.492-17.542,13.295-17.542,24.338v32.816c0,4.722,3.829,8.551,8.551,8.551h136.818c4.722,0,8.551-3.829,8.551-8.551   v-32.817C503.983,383.164,496.918,373.361,486.442,369.869z"/>
</g>
<g>
	<path style="fill:#FFC850;" d="M401.37,427.023v-32.817c0-11.043,4.711-20.846,11.694-24.338l6.264-3.132   c-6.149-0.625-12.093-1.95-17.733-3.942c-3.808-1.346-7.912-1.619-11.745-0.341l-22.247,7.416   c-10.475,3.492-17.542,13.295-17.542,24.338v32.816c0,4.722,3.829,8.551,8.551,8.551h48.456   C403.922,435.574,401.37,431.745,401.37,427.023z"/>
	<path style="fill:#FFC850;" d="M418.472,290.205v-8.551c0-19.9,8.195-36.476,19.24-41.243c-3.435-0.89-6.976-1.512-10.689-1.512   c-23.613,0-42.756,19.143-42.756,42.756v8.551c0,23.613,19.143,42.756,42.756,42.756c3.713,0,7.254-0.622,10.689-1.512   C426.667,326.681,418.472,310.104,418.472,290.205z"/>
</g>
<path d="M324.411,359.148H33.67c-9.725,0-17.637-7.912-17.637-17.637V102.079c0-9.725,7.912-17.637,17.637-17.637h376.251  c9.725,0,17.637,7.912,17.637,17.637v102.614c0,4.427,3.588,8.017,8.017,8.017s8.017-3.589,8.017-8.017V102.079  c0-18.566-15.105-33.67-33.67-33.67H33.67C15.105,68.409,0,83.514,0,102.079v239.432c0,18.566,15.105,33.67,33.67,33.67h290.741  c4.428,0,8.017-3.589,8.017-8.017S328.84,359.148,324.411,359.148z"/>
<path d="M350.063,118.647c4.428,0,8.017-3.589,8.017-8.017c0-4.427-3.588-8.017-8.017-8.017H332.96  c-4.428,0-8.017,3.589-8.017,8.017c0,4.427,3.588,8.017,8.017,8.017H350.063z"/>
<path d="M306.772,110.63c0-4.427-3.588-8.017-8.017-8.017H42.221c-4.428,0-8.017,3.589-8.017,8.017v171.023  c0,4.427,3.588,8.017,8.017,8.017s8.017-3.589,8.017-8.017V118.647h248.518C303.184,118.647,306.772,115.058,306.772,110.63z"/>
<path d="M34.205,332.96c0,4.427,3.588,8.017,8.017,8.017h316.393c4.428,0,8.017-3.589,8.017-8.017s-3.588-8.017-8.017-8.017H50.238  v-9.086c0-4.427-3.588-8.017-8.017-8.017s-8.017,3.589-8.017,8.017V332.96z"/>
<path d="M401.37,221.261c4.428,0,8.017-3.589,8.017-8.017V110.63c0-4.427-3.588-8.017-8.017-8.017h-17.102  c-4.428,0-8.017,3.589-8.017,8.017c0,4.427,3.588,8.017,8.017,8.017h9.086v94.597C393.353,217.672,396.941,221.261,401.37,221.261z"/>
<path d="M290.205,427.557h-19.394l-7.033-28.132c-1.074-4.296-5.43-6.905-9.723-5.833c-4.296,1.074-6.906,5.427-5.833,9.722  l6.061,24.244h-64.976l6.061-24.244c1.073-4.296-1.537-8.648-5.833-9.722c-4.297-1.072-8.647,1.537-9.723,5.833l-7.031,28.132  h-19.394c-4.428,0-8.017,3.589-8.017,8.017c0,4.427,3.588,8.017,8.017,8.017h136.818c4.428,0,8.017-3.589,8.017-8.017  C298.221,431.147,294.633,427.557,290.205,427.557z"/>
<path d="M376.251,281.653v8.551c0,27.996,22.777,50.772,50.772,50.772s50.772-22.776,50.772-50.772v-8.551  c0-27.996-22.777-50.772-50.772-50.772S376.251,253.657,376.251,281.653z M461.762,281.653v8.551  c0,19.156-15.583,34.739-34.739,34.739s-34.739-15.583-34.739-34.739v-8.551c0-19.156,15.583-34.739,34.739-34.739  S461.762,262.498,461.762,281.653z"/>
<path d="M488.977,362.264l-22.246-7.415c-5.338-1.779-11.2-1.644-16.952,0.388c-14.691,5.192-30.822,5.192-45.515,0  c-5.754-2.033-11.613-2.167-16.949-0.388l-22.246,7.416c-13.772,4.59-23.024,17.426-23.024,31.943v32.815  c0,9.136,7.432,16.568,16.568,16.568h136.818c9.136,0,16.568-7.432,16.568-16.568v-32.817  C512,379.69,502.748,366.854,488.977,362.264z M495.967,427.023c0,0.295-0.241,0.534-0.534,0.534H358.614  c-0.294,0-0.534-0.239-0.534-0.534v-32.817c0-7.604,4.846-14.327,12.06-16.731l22.247-7.416c0.895-0.298,1.795-0.415,2.656-0.415  c1.477,0,2.843,0.343,3.881,0.71c9.065,3.203,18.52,4.828,28.099,4.828s19.034-1.625,28.098-4.828  c1.644-0.58,4.111-1.104,6.539-0.294l22.246,7.415c7.214,2.404,12.06,9.128,12.06,16.731V427.023z"/>
<path d="M287.323,251.798c-3.132-3.131-8.207-3.131-11.338,0l-6.424,6.424l-6.802-6.802l6.424-6.424  c3.131-3.131,3.131-8.207,0-11.338c-3.132-3.131-8.207-3.131-11.338,0l-6.424,6.424l-35.039-35.039  c7.849-12.95,6.193-30.086-4.981-41.26c0,0,0,0-0.001,0c-13.127-13.127-34.488-13.127-47.617,0  c-13.127,13.128-13.127,34.489,0.001,47.617c6.564,6.564,15.186,9.846,23.807,9.846c6.056,0,12.109-1.626,17.452-4.865  l70.941,70.941c1.566,1.566,3.617,2.348,5.669,2.348c2.051,0,4.103-0.782,5.669-2.348c3.131-3.131,3.131-8.206,0-11.337  l-6.424-6.424l6.424-6.424C290.453,260.005,290.453,254.929,287.323,251.798z M175.12,200.062c-6.877-6.876-6.877-18.065,0-24.942  c3.438-3.439,7.954-5.157,12.471-5.157c4.517,0,9.033,1.719,12.471,5.157c6.877,6.876,6.877,18.065,0,24.942  C193.185,206.939,181.996,206.939,175.12,200.062z"/>
<g>
</g>
<g>
</g>
<g>
</g>
<g>
</g>
<g>
</g>
<g>
</g>
<g>
</g>
<g>
</g>
<g>
</g>
<g>
</g>
<g>
</g>
<g>
</g>
<g>
</g>
<g>
</g>
<g>
</g>
</svg>
